<svg width="86" height="86" fill="none" xmlns="http://www.w3.org/2000/svg"><g clip-path="url(#clip0_22_121)" fill="#23282E"><path d="M78.905 74.892l-6.894-11.926a13.975 13.975 0 00-4.3-18.504V14.19a3.354 3.354 0 00-3.354-3.354H16.512a3.34 3.34 0 00-3.34 3.354v57.118a3.34 3.34 0 003.34 3.34H40.95l-.143.244a1.433 1.433 0 000 1.52 1.433 1.433 0 001.433.63l4.458-.574 1.734 4.143a1.433 1.433 0 001.233.874h.086a1.434 1.434 0 001.247-.717l6.335-10.95c.837.155 1.686.236 2.537.243.856-.008 1.71-.09 2.552-.243l6.378 10.95a1.433 1.433 0 001.247.717h.086a1.434 1.434 0 001.233-.874l1.734-4.143 4.458.574a1.432 1.432 0 001.433-2.15h-.086zm-62.393-3.11a.473.473 0 01-.473-.474V14.19a.487.487 0 01.473-.487h47.816a.487.487 0 01.487.487V43a13.644 13.644 0 00-3.913-.874V19.049a1.433 1.433 0 00-1.433-1.433H21.371a1.433 1.433 0 00-1.433 1.433v47.386a1.433 1.433 0 001.433 1.433h23.492L42.6 71.781H16.512zm29.355-15.724a13.962 13.962 0 001.834 6.908l-1.19 2.036H22.805v-44.52h35.232v21.715a14.018 14.018 0 00-12.17 13.86zm4.07 20.783l-1.032-2.48a1.433 1.433 0 00-1.433-.86l-2.666.33 4.816-8.342a13.975 13.975 0 004.845 3.483l-4.53 7.87zm-1.204-20.783a11.122 11.122 0 1111.123 11.137 11.137 11.137 0 01-11.123-11.137zM72.312 73.5a1.434 1.434 0 00-1.505.86l-1.032 2.48-4.544-7.869a13.976 13.976 0 005.002-3.483l4.816 8.342-2.737-.33z"/><path d="M66.75 52.847L63.267 51.6l-2.279-2.867a1.433 1.433 0 00-2.221 0l-2.28 2.867-3.454 1.247a1.433 1.433 0 00-.932 1.546c.03.216.108.423.23.604l2.093 3.067.043 3.713a1.434 1.434 0 001.186 1.37c.216.038.438.025.648-.037l3.555-1.047 3.57 1.047c.132.022.267.022.4 0 .3-.002.59-.097.832-.273a1.432 1.432 0 00.602-1.118l.1-3.712 2.093-3.067a1.433 1.433 0 00.186-1.247 1.432 1.432 0 00-.889-.846zm-3.984 3.956a1.435 1.435 0 00-.258.76v2.279l-2.308-.645a1.432 1.432 0 00-.803 0l-2.064.645-.071-2.28a1.433 1.433 0 00-.258-.759l-1.276-1.892 2.136-.76c.257-.097.485-.26.66-.473l1.432-1.806 1.434 1.806c.174.213.401.377.66.473l2.135.76-1.42 1.892zM46.884 24.797h-12.9a1.433 1.433 0 100 2.866h12.9a1.433 1.433 0 000-2.866zM28.366 53.994h7.324a1.433 1.433 0 100-2.867h-7.324a1.433 1.433 0 000 2.867zm13.201 3.468H28.366a1.433 1.433 0 000 2.867h13.2a1.433 1.433 0 000-2.867z"/></g><defs><clipPath id="clip0_22_121"><path fill="#fff" d="M0 0h86v86H0z"/></clipPath></defs></svg>