<svg width="86" height="86" fill="none" xmlns="http://www.w3.org/2000/svg"><g clip-path="url(#clip0_22_104)" fill="#23282E"><path d="M48.733 77.271h-31.06a.458.458 0 01-.459-.473v-31.39a12.15 12.15 0 003.756 1.032V73.1a1.433 1.433 0 001.433 1.433h17.573a1.433 1.433 0 000-2.866H23.779V46.44a12.657 12.657 0 008.227-20.812h30.272v19.25a1.433 1.433 0 102.867 0V24.223a1.433 1.433 0 00-1.433-1.433H28.667a12.512 12.512 0 00-11.467-.502v-5.575a.459.459 0 01.459-.473h14.577v2.393a1.433 1.433 0 001.433 1.434h18.777a1.433 1.433 0 001.433-1.434V16.24h14.505a.458.458 0 01.459.473v29.512a1.433 1.433 0 002.867 0V16.713a3.297 3.297 0 00-3.283-3.283H53.822v-.53a1.433 1.433 0 00-1.434-1.433h-3.253v-1.434a4.3 4.3 0 00-4.3-4.228H41.15a4.3 4.3 0 00-4.228 4.3v1.433H33.64a1.433 1.433 0 00-1.433 1.434v.473H17.673a3.297 3.297 0 00-3.34 3.268v7.295a12.672 12.672 0 000 19.68v33.11a3.297 3.297 0 003.283 3.297h31.117a1.433 1.433 0 100-2.867v.043zM41.151 8.73h3.755a1.434 1.434 0 011.434 1.433v1.434h-6.594v-1.434a1.433 1.433 0 011.405-1.433zm-6.106 5.604h15.967V17.2H35.045v-2.867zM12.513 33.855a9.862 9.862 0 119.89 9.847 9.876 9.876 0 01-9.89-9.847z"/><path d="M64.93 51.299c-2.073.01-4.12.46-6.006 1.319l-.286-.488a1.433 1.433 0 00-1.921-.53 16.498 16.498 0 00-8.199 14.233 1.433 1.433 0 001.434 1.433h.53A14.549 14.549 0 1064.93 51.3zm-7.984 3.526l5.547 9.675h-11.08a13.676 13.676 0 015.533-9.675zm7.984 22.761a11.739 11.739 0 01-11.639-10.334H64.93a1.434 1.434 0 001.218-2.107L60.33 55.112a11.74 11.74 0 114.601 22.474zm-30.057-28.15a1.433 1.433 0 00-1.992 0l-4.214 4.156a1.433 1.433 0 000 1.993 1.347 1.347 0 00.989.415c.376-.001.736-.15 1.003-.415l3.153-3.154 2.867 2.867a1.433 1.433 0 001.992 0l5.404-5.418 2.465 2.465a1.433 1.433 0 001.993 0l8.8-8.671a1.433 1.433 0 000-1.993 1.433 1.433 0 00-1.992 0l-7.711 7.726-2.466-2.465a1.433 1.433 0 00-1.992 0l-5.418 5.418-2.881-2.924zm-16.34-14.233a3.711 3.711 0 002.867.372l2.723-.73a.902.902 0 01.717.1.845.845 0 01.43.559.946.946 0 01-.66 1.16l-4.085 1.09a1.434 1.434 0 00.373 2.766c.115 0 1.72-.415 1.72-.415l.13.458a1.433 1.433 0 001.346 1.047c.124.02.25.02.373 0a1.434 1.434 0 00.99-1.72l-.116-.459a3.755 3.755 0 10-1.949-7.253l-2.709.731a.96.96 0 01-.717-.086.988.988 0 01-.444-.573.946.946 0 01.674-1.147L24.266 30a1.434 1.434 0 00-.76-2.767l-1.347.373-.129-.459a1.433 1.433 0 00-2.723.731l.13.459a3.755 3.755 0 00-.904 6.88v-.014zm37.84-5.103H39.474a1.433 1.433 0 000 2.867h16.9a1.433 1.433 0 000-2.867zm0 4.687H46.039a1.433 1.433 0 100 2.867h10.334a1.433 1.433 0 000-2.867z"/></g><defs><clipPath id="clip0_22_104"><path fill="#fff" d="M0 0h86v86H0z"/></clipPath></defs></svg>