<svg width="120" height="120" fill="none" xmlns="http://www.w3.org/2000/svg"><path d="M27.416 22.142a1.758 1.758 0 100-3.516 1.758 1.758 0 000 3.516zm-14.063 0a1.758 1.758 0 100-3.516 1.758 1.758 0 000 3.516zm7.031 0a1.758 1.758 0 100-3.516 1.758 1.758 0 000 3.516zM20 40.764h.032l15.893.004a2.38 2.38 0 002.32-1.77 2.38 2.38 0 00-1.094-2.706l-2.417-1.43a20.374 20.374 0 006.035-14.61C40.698 9.246 31.688.162 20.684.003 9.28-.162 0 9.062 0 20.384c0 10.857 8.946 20.144 19.999 20.38zM8.543 8.37c3.241-3.195 7.526-4.916 12.09-4.853 9.106.131 16.562 7.649 16.62 16.758a16.863 16.863 0 01-5.783 12.822 2.574 2.574 0 00-.87 2.17 2.572 2.572 0 001.25 1.973l.017.01-11.819-.002c-9.136-.175-16.532-7.702-16.532-16.864 0-4.552 1.785-8.818 5.027-12.014zm109.699 108.114h-1.758V90.307a17.375 17.375 0 00-10.344-15.875l-9.264-3.97a13.877 13.877 0 005.948-3.74c2.5-2.654 3.934-6.256 3.934-9.881 0-3.331-1.164-6.476-3.367-9.094a18.203 18.203 0 01-4.272-11.707v-8.423c0-7.378-2.873-14.313-8.09-19.527C85.814 2.873 78.879 0 71.502 0 56.273 0 43.884 12.389 43.884 27.616v8.15c.001 4.427-1.739 8.652-4.566 12.058-3.557 4.287-4.297 10.083-1.928 15.126 1.757 3.743 4.928 6.433 8.724 7.571l-9.2 4A17.32 17.32 0 0026.29 90.519v20.693a1.758 1.758 0 103.516 0V90.518c0-5.583 3.325-10.59 8.491-12.764l11.531-5.014v10.58h-5.297a5.282 5.282 0 00-3.921 1.747 5.28 5.28 0 00-1.323 4.083l2.897 27.334H1.758a1.758 1.758 0 100 3.516h116.484a1.758 1.758 0 100-3.516zm-17.54-66.473c1.662 1.975 2.54 4.337 2.54 6.83 0 2.739-1.085 5.462-2.977 7.47-2.004 2.128-4.756 3.3-7.75 3.3h-2.29l-3.01-1.29a8.021 8.021 0 01-4.794-6.326c5.424-2.92 9.12-8.652 9.12-15.232V31.55a22.4 22.4 0 004.064-.089v4.58a21.712 21.712 0 005.097 13.97zM71.928 77.76a65.12 65.12 0 01-18.584-2.365V71.21l.508-.221.012-.005L57 69.62a11.543 11.543 0 006.706-8.258c1.53.445 3.146.688 4.819.688h5.727c1.68 0 3.3-.245 4.837-.694a11.537 11.537 0 006.74 8.195l3.348 1.434a.057.057 0 00.006.003l.248.106v3.955a65.248 65.248 0 01-17.503 2.71zm17.502.95v4.61H53.344v-4.285a68.702 68.702 0 0018.646 2.24 68.753 68.753 0 0017.44-2.566zm6.174-50.796c-4.842.654-10.3-.643-14.06-3.556a1.758 1.758 0 00-2.153 2.779c2.458 1.904 5.423 3.246 8.633 3.922v9.57c-.844 1.925-1.784 3.526-3.904 5.275a13.475 13.475 0 01-2.916 1.833 5.157 5.157 0 00-4.588-2.811h-4.12a5.159 5.159 0 00-5.152 5.152 5.159 5.159 0 005.153 5.153h4.12a5.162 5.162 0 004.985-3.85c2.351-.895 6.185-4.092 6.186-4.093-1.19 6.39-6.805 11.245-13.535 11.245h-5.729c-7.593 0-13.772-6.177-13.772-13.771V31.175a47.139 47.139 0 0016.783-6.016c7.876-4.658 12.928-10.746 15.977-15.556a24.087 24.087 0 018.092 18.312zm-17.351 22.17a1.639 1.639 0 01-1.637 1.632h-4.12a1.639 1.639 0 01-1.636-1.637 1.64 1.64 0 011.637-1.637h4.119c.901 0 1.634.731 1.637 1.632v.01zM47.4 27.615c0-13.289 10.812-24.1 24.1-24.1 4.767 0 9.321 1.375 13.213 3.937-2.806 4.497-7.528 10.28-14.967 14.681-5.104 3.019-10.702 4.946-16.64 5.729H47.4v-.247zm-6.828 33.84c-1.783-3.797-1.227-8.16 1.45-11.384 3.358-4.045 5.382-9.044 5.378-14.306v-4.388h3.837v13.385c0 6.584 3.7 12.318 9.128 15.237a8.026 8.026 0 01-4.767 6.397l-2.79 1.213h-2.549c-4.193 0-7.905-2.358-9.688-6.154zm61.192 27.323l-2.937 27.705H45.719l-2.936-27.705a1.736 1.736 0 01.44-1.36 1.737 1.737 0 011.308-.583h55.485c.505 0 .969.207 1.307.582.337.376.494.859.441 1.361zm11.205 27.705h-10.607l2.898-27.334a5.281 5.281 0 00-1.324-4.083 5.279 5.279 0 00-3.92-1.746h-7.07V72.6l11.789 5.054a13.85 13.85 0 018.234 12.652v26.177zM72.273 94.981a6.687 6.687 0 00-6.68 6.679 6.688 6.688 0 006.68 6.68 6.688 6.688 0 006.68-6.68 6.687 6.687 0 00-6.68-6.68zm0 9.843a3.167 3.167 0 01-3.164-3.164 3.168 3.168 0 013.164-3.164 3.168 3.168 0 013.164 3.164 3.167 3.167 0 01-3.164 3.164z" fill="#B29E54"/></svg>