<svg width="120" height="120" fill="none" xmlns="http://www.w3.org/2000/svg"><path d="M104.717 85.33l-31.635-9.198V73.42h8.131c6.824 0 12.375-5.55 12.375-12.374V33.587C93.588 15.067 78.52 0 60 0 41.48 0 26.413 15.067 26.413 33.587v27.46c0 6.823 5.55 12.374 12.374 12.374h8.132v2.711l-31.656 9.203A11.133 11.133 0 007.32 96.048v23.806h3.536V96.048a7.611 7.611 0 015.413-7.324l19.335-5.621v21.076h9.945L60 120l14.45-15.821h9.945V83.103l19.315 5.615a7.618 7.618 0 015.434 7.33v23.806h3.535V96.048c0-4.965-3.192-9.27-7.962-10.719zM65.823 67.307c-.037.01-.073.022-.11.033a19.07 19.07 0 01-.795.227l-.089.023a19.64 19.64 0 01-.855.198l-.19.037c-.227.045-.455.086-.684.123l-.23.037c-.282.041-.565.078-.85.108l-.151.013a18.782 18.782 0 01-.983.069c-.294.013-.59.022-.886.022-.298 0-.593-.009-.887-.022l-.243-.013a20.179 20.179 0 01-.74-.056l-.15-.013c-.286-.03-.569-.067-.85-.108l-.231-.037a19.288 19.288 0 01-.684-.123l-.19-.037a19.05 19.05 0 01-.855-.198l-.089-.023a20.111 20.111 0 01-.904-.26c-7.887-2.48-13.623-9.86-13.623-18.554v-12.02c0-6.51 4.866-11.904 11.152-12.736.96 12.057 11.079 21.574 23.378 21.574h4.36v3.182c.001 8.694-5.735 16.073-13.621 18.554zm-27.036 2.577c-4.874 0-8.839-3.965-8.839-8.839V33.588C29.948 17.017 43.43 3.536 60 3.536s30.052 13.48 30.052 30.051v27.46c0 4.873-3.965 8.838-8.839 8.838h-8.131v-2.248c5.977-4.154 9.899-11.069 9.899-18.883v-6.718h-7.896c-10.982 0-19.917-8.934-19.917-19.916v-1.768h-1.767c-9.033 0-16.382 7.349-16.382 16.381v12.02c0 7.815 3.922 14.73 9.9 18.884v2.248h-8.132zm8.322 30.759h-7.968V82.075l8.397-2.44 8.74 31.048-9.169-10.039zm12.89 10.212l-9.545-33.907v-7.287c.878.401 1.78.744 2.698 1.03l.03.01c.145.045.29.088.435.13l.152.044a21.928 21.928 0 00.901.233 24.73 24.73 0 00.894.194l.237.046c.122.023.245.044.368.065l.215.035c.13.021.262.04.394.059l.197.028c.137.018.274.034.412.05l.186.021c.14.015.28.028.421.04l.182.016c.143.011.286.02.43.029l.176.011c.15.008.3.013.45.018l.159.006a24.144 24.144 0 001.218 0l.159-.006c.15-.005.3-.01.45-.018l.176-.011c.144-.009.287-.017.43-.029l.181-.016a22.5 22.5 0 00.422-.04l.186-.021a22.435 22.435 0 001.003-.136l.215-.036c.123-.02.246-.042.368-.065.08-.014.158-.03.237-.045a20.555 20.555 0 00.894-.195 27.59 27.59 0 00.901-.233l.151-.044c.146-.042.292-.085.437-.13l.027-.008a22.82 22.82 0 002.7-1.031v7.286L60 110.856zm20.86-10.212h-7.968l-9.17 10.039 8.742-31.049 8.397 2.441v18.569z" fill="#B29E54"/><path d="M27.355 105.947H23.82v13.907h3.535v-13.907zm68.825 0h-3.536v13.907h3.536v-13.907z" fill="#B29E54"/><path stroke="#B29E54" stroke-width="3" stroke-linecap="round" d="M114.531 118.5H5.5"/></svg>