<svg width="86" height="86" fill="none" xmlns="http://www.w3.org/2000/svg"><g clip-path="url(#clip0_22_85)" fill="#23282E"><path d="M70.979 34.27A14.95 14.95 0 1156.037 8.374 14.95 14.95 0 0170.979 34.27zm2.995-18.99a12.084 12.084 0 10-4.429 16.511 12.097 12.097 0 004.43-16.512z"/><path d="M56.41 16.046a1.434 1.434 0 002.427 1.527 4.486 4.486 0 013.765-2.098c.24-.01.473-.076.682-.194a1.434 1.434 0 00-.724-2.681 7.396 7.396 0 00-6.15 3.446zm6.5 12.334l-1.434-.373-.373 1.434a1.44 1.44 0 11-2.78-.746l.444-1.462-1.434-.372a1.436 1.436 0 01-1.058-1.77 1.433 1.433 0 011.804-.997l1.433.373.373-1.433a1.44 1.44 0 112.78.745l-.386 1.433 1.433.387a1.433 1.433 0 011.003 1.749 1.434 1.434 0 01-1.806 1.032zm8.757-5.074l-1.434-.373-.372 1.434a1.433 1.433 0 11-2.767-.731l.373-1.434-1.433-.372a1.434 1.434 0 11.73-2.767l1.434.373.373-1.433a1.431 1.431 0 011.768-1.06 1.434 1.434 0 01.998 1.805l-.373 1.433 1.434.373a1.435 1.435 0 01.908 2.321 1.432 1.432 0 01-1.64.43zM20.339 68.972a1.705 1.705 0 110-3.41 1.705 1.705 0 010 3.41zM18.633 38.7a11.094 11.094 0 1111.109-11.094A11.109 11.109 0 0118.633 38.7zm0-19.321a8.228 8.228 0 108.242 8.227 8.241 8.241 0 00-8.242-8.227z"/><path d="M22.632 26.875l-2.02 1.218L21.83 30.1a1.433 1.433 0 01-.502 1.964 1.433 1.433 0 01-1.964-.488l-1.218-2.035-2.021 1.218a1.432 1.432 0 01-2.134-1.573 1.43 1.43 0 01.658-.878l2.02-1.218-1.218-2.035a1.434 1.434 0 01.488-1.964 1.433 1.433 0 011.949.502l1.218 2.035 2.021-1.218a1.433 1.433 0 011.434 2.465h.071zm25.356 13.574H59.97a5.26 5.26 0 015.26 5.26 5.145 5.145 0 01-.96 3.024 5.218 5.218 0 010 9.288 5.26 5.26 0 01-1.434 7.41 5.245 5.245 0 01-4.07 8.472h-21.07a22.202 22.202 0 01-10.793-2.867 4 4 0 01-3.799 2.867h-5.532a4.013 4.013 0 01-4-4v-.343H9.848a1.433 1.433 0 110-2.867h3.727V52.89H9.847a1.433 1.433 0 110-2.867h3.74v-.358a3.999 3.999 0 014-3.985h5.518a3.985 3.985 0 013.756 2.652l5.733-7.496a19.164 19.164 0 002.867-11.782l-.086-.975a3.024 3.024 0 012.737-3.268h.774a8.715 8.715 0 018.6 7.94l.2 2.38a10.635 10.635 0 01-.486 4.3.803.803 0 00.1.702.788.788 0 00.688.316zm-24.883 8.084h-5.518a1.118 1.118 0 00-1.132 1.118v20.238a1.132 1.132 0 001.132 1.133h5.533a1.132 1.132 0 001.132-1.133V49.708a1.13 1.13 0 00-1.147-1.175zm21.873-6.78a3.683 3.683 0 01-.459-3.325 8.011 8.011 0 00.344-3.082l-.2-2.38a5.849 5.849 0 00-2.064-3.97 5.734 5.734 0 00-4.3-1.333.143.143 0 00-.144.158l.086.96c.407 4.8-.766 9.602-3.34 13.674l-7.166 9.432-.13.143a1.735 1.735 0 00-.5 1.218v13.66a1.764 1.764 0 00.845 1.433 19.38 19.38 0 009.747 2.623h21.07a2.394 2.394 0 000-4.787h-3.641a1.433 1.433 0 010-2.867h4.93a2.394 2.394 0 000-4.773h-5.475a1.433 1.433 0 010-2.866h7.282a2.395 2.395 0 100-4.773h-6.536a1.433 1.433 0 110-2.867h4.644a2.394 2.394 0 000-4.787H47.988a3.699 3.699 0 01-3.01-1.491z"/></g><defs><clipPath id="clip0_22_85"><path fill="#fff" transform="matrix(1 0 0 -1 0 86)" d="M0 0h86v86H0z"/></clipPath></defs></svg>