<svg width="30" height="36" fill="none" xmlns="http://www.w3.org/2000/svg"><path d="M15 0C6.729 0 0 5.696 0 12.698 0 21.222 13.752 35.15 14.338 35.74c.164.165.404.26.658.261H15a.938.938 0 00.657-.256C16.243 35.165 30 21.467 30 12.698 30 5.696 23.271 0 15 0zm.005 34.115C12.243 31.207 1.731 19.678 1.731 12.698 1.73 6.504 7.683 1.465 15 1.465s13.27 5.04 13.27 11.233c0 7.179-10.495 18.543-13.265 21.417z" fill="#B29E54"/><path d="M15 7.06c-3.516 0-6.377 2.422-6.377 5.4 0 2.976 2.86 5.398 6.377 5.398s6.377-2.422 6.377-5.399S18.517 7.061 15 7.061zm0 9.332c-2.562 0-4.646-1.764-4.646-3.933 0-2.169 2.084-3.933 4.646-3.933s4.647 1.764 4.647 3.933c0 2.17-2.085 3.933-4.647 3.933z" fill="#B29E54"/></svg>