<svg width="30" height="30" fill="none" xmlns="http://www.w3.org/2000/svg"><path d="M27.69 3.753H2.31A2.315 2.315 0 000 6.063v17.873a2.315 2.315 0 002.31 2.31h25.38a2.315 2.315 0 002.31-2.31V6.063a2.315 2.315 0 00-2.31-2.31zm-.336 1.709l-12.196 10.43L2.962 5.462h24.392zm.937 18.474c0 .33-.272.602-.601.602H2.31a.605.605 0 01-.601-.602V6.64L14.6 17.664c.007.007.02.013.026.02.006.006.019.012.025.018.019.013.032.026.05.032.007.006.013.006.02.013l.075.038c.007 0 .013.006.02.006.018.006.037.019.063.025.006 0 .019.007.025.007.02.006.038.012.057.012.006 0 .019.006.025.006.02.007.045.007.064.013h.019c.025 0 .057.006.082.006s.057 0 .082-.006h.02a.223.223 0 00.063-.012c.006 0 .018-.007.025-.007.019-.006.038-.012.057-.012.006 0 .019-.007.025-.007.019-.006.038-.012.063-.025.007 0 .013-.006.02-.006l.075-.038c.007-.007.013-.007.02-.013.018-.013.03-.019.05-.032.006-.006.019-.012.025-.019.007-.006.02-.012.026-.019L28.29 6.911v17.026z" fill="#B29E54"/></svg>