<svg width="86" height="86" fill="none" xmlns="http://www.w3.org/2000/svg"><g clip-path="url(#clip0_22_66)" fill="#23282E"><path d="M13.373 23.994a1.433 1.433 0 100-2.867 1.433 1.433 0 000 2.867zm9.56 0a1.433 1.433 0 100-2.867 1.433 1.433 0 000 2.867zm-4.773 0a1.433 1.433 0 100-2.866 1.433 1.433 0 000 2.866zm10.507 19.364l4.3-4.3a1.439 1.439 0 10-2.036-2.035L25.6 42.37a1.434 1.434 0 000 2.021l5.332 5.347a1.435 1.435 0 102.036-2.021l-4.3-4.358zm20.525 6.35a1.434 1.434 0 002.02 0l5.347-5.275a1.433 1.433 0 000-2.02l-5.346-5.347a1.434 1.434 0 00-2.021 2.035l4.3 4.3-4.3 4.3a1.433 1.433 0 000 2.007zm-4.759-12.226a1.432 1.432 0 00-1.963.53L37.18 47.3a1.432 1.432 0 102.48 1.433l5.347-9.245a1.432 1.432 0 00-.574-2.006z"/><path d="M80.066 57.333a.417.417 0 01-.387-.272 14.95 14.95 0 00-2.394-4.142.416.416 0 010-.473 3.296 3.296 0 00-1.204-4.5l-1.075-.646V21.127a4.3 4.3 0 00-4.3-4.3h-59.24a4.3 4.3 0 00-4.3 4.3v36.321a3.354 3.354 0 003.34 3.34H30.1l-1.433 5.303H26.76a6.206 6.206 0 00-6.034 4.773H17.2a1.433 1.433 0 000 2.867h36.507c-.024.342.01.686.1 1.017a3.226 3.226 0 001.534 2.007l3.024 1.749a3.295 3.295 0 004.501-1.219.444.444 0 01.444-.2c1.575.272 3.185.272 4.76 0a.43.43 0 01.443.215 3.298 3.298 0 002.867 1.634 3.253 3.253 0 001.648-.43l3.025-1.749a3.281 3.281 0 001.533-2.007 3.239 3.239 0 00-.33-2.494.43.43 0 010-.487 15.08 15.08 0 002.394-4.128.401.401 0 01.387-.272 3.31 3.31 0 003.297-3.297v-3.497a3.296 3.296 0 00-3.268-3.24zM10.033 21.127a1.433 1.433 0 011.434-1.433h59.24a1.433 1.433 0 011.433 1.433v4.3H10.033v-4.3zm.473 36.794a.473.473 0 01-.473-.473V28.294H72.14v17.573a3.283 3.283 0 00-3.627 1.433.415.415 0 01-.43.186 14.72 14.72 0 00-4.758 0 .402.402 0 01-.43-.186 3.284 3.284 0 00-4.5-1.204l-3.025 1.749a3.21 3.21 0 00-1.534 1.992 3.325 3.325 0 00.315 2.508.387.387 0 010 .473 14.948 14.948 0 00-2.393 4.143.416.416 0 01-.387.272 3.282 3.282 0 00-1.95.645l-38.915.043zm38.227 8.17h-17.2l1.434-5.303h15.05v3.282c.009.734.26 1.445.716 2.021zm-21.958 2.867h25.513c.328.66.701 1.297 1.118 1.906H23.75a3.34 3.34 0 013.01-1.906h.015zm53.721-4.888a.43.43 0 01-.43.43 3.311 3.311 0 00-3.082 2.121 12.124 12.124 0 01-1.92 3.34 3.311 3.311 0 00-.301 3.727.374.374 0 010 .315.418.418 0 01-.2.272l-2.982 1.692a.43.43 0 01-.588-.172 3.31 3.31 0 00-3.397-1.591 11.35 11.35 0 01-3.813 0 3.31 3.31 0 00-3.397 1.605.444.444 0 01-.587.158l-3.025-1.749a.416.416 0 01-.2-.272.372.372 0 010-.316 3.34 3.34 0 00-.301-3.726 11.97 11.97 0 01-1.935-3.34 3.268 3.268 0 00-3.025-2.064.43.43 0 01-.43-.43v-3.497a.416.416 0 01.43-.43 3.296 3.296 0 003.068-2.122 11.768 11.768 0 011.935-3.34 3.34 3.34 0 00.3-3.726.4.4 0 010-.33.372.372 0 01.201-.258l3.025-1.748c.07-.02.144-.02.215 0a.43.43 0 01.358.2 3.325 3.325 0 003.397 1.606 11.355 11.355 0 013.813 0 3.34 3.34 0 003.368-1.692.416.416 0 01.573-.143l3.025 1.749a.374.374 0 01.2.258.4.4 0 010 .33 3.297 3.297 0 00.301 3.712 12.197 12.197 0 011.921 3.354 3.325 3.325 0 003.053 2.207.416.416 0 01.43.43v3.44z"/><path d="M65.69 55.814a6.507 6.507 0 100 13.014 6.507 6.507 0 000-13.014zm0 10.148a3.641 3.641 0 113.64-3.64 3.64 3.64 0 01-3.64 3.611v.029z"/></g><defs><clipPath id="clip0_22_66"><path fill="#fff" d="M0 0h86v86H0z"/></clipPath></defs></svg>