<svg width="30" height="30" fill="none" xmlns="http://www.w3.org/2000/svg"><g clip-path="url(#clip0_22_182)"><path d="M22.443 20.523l-3.001-2.013a.875.875 0 00-.881-.078l-1.152.584a.828.828 0 01-.9-.111 11.659 11.659 0 01-4.063-7.037.827.827 0 01.354-.835l1.049-.762a.876.876 0 00.391-.795l-.242-3.606-.056-.923a.884.884 0 00-.602-.771 3.75 3.75 0 00-3.39.526l-.236.179-.122.093a1.945 1.945 0 00-.164.132l-.15.145c-1.985 1.94-1.611 6.816.946 11.659l.778 1.348c2.912 4.63 6.948 7.39 9.632 6.683l.2-.058a1.96 1.96 0 00.196-.075l.142-.058.273-.114a3.75 3.75 0 002.149-2.674.885.885 0 00-.366-.907l-.785-.532z" stroke="#B29E54" stroke-width="1.5" stroke-miterlimit="10"/></g><defs><clipPath id="clip0_22_182"><path fill="#fff" d="M0 0h30v30H0z"/></clipPath></defs></svg>